<?xml version="1.0" encoding="utf-8"?>
<!-- Generator: Adobe Illustrator 25.4.1, SVG Export Plug-In . SVG Version: 6.00 Build 0)  -->
<svg version="1.1" id="Layer_1" xmlns="http://www.w3.org/2000/svg" xmlns:xlink="http://www.w3.org/1999/xlink" x="0px" y="0px"
	 viewBox="0 0 250 250" style="enable-background:new 0 0 250 250;" xml:space="preserve">
<style type="text/css">
	.st0{fill:#009046;}
</style>
<g>
	<g>
		<circle class="st0" cx="164.64" cy="179.3" r="16.8"/>
	</g>
	<g>
		<path class="st0" d="M221.56,54.26h-96.12l8.72,11.58c4.78,6.35,4.94,15.06,0.39,21.58l-49.18,70.45
			c-5.29,7.58-13.95,12.09-23.19,12.09H14.69c3.78,9.36,8.73,18.13,14.64,26.13h63.22c13.11,0,25.39-6.4,32.89-17.15l63.71-91.26
			c3.19-4.58,8.42-7.3,14-7.3h33.06C232.42,71.03,227.48,62.26,221.56,54.26z"/>
	</g>
	<g>
		<g>
			<path class="st0" d="M31.73,156.91c-3.37-9.96-5.2-20.63-5.2-31.73c0-54.63,44.29-98.91,98.91-98.91
				c19.19,0,37.1,5.47,52.27,14.93h32.66c-21.65-21.89-51.7-35.46-84.92-35.46C59.48,5.74,6,59.21,6,125.18
				c0,10.99,1.49,21.62,4.27,31.73H31.73z"/>
		</g>
		<g>
			<path class="st0" d="M219.16,93.45c3.37,9.96,5.2,20.63,5.2,31.73c0,54.63-44.29,98.91-98.91,98.91
				c-19.19,0-37.1-5.47-52.27-14.93H40.52c21.65,21.89,51.7,35.46,84.92,35.46c65.97,0,119.44-53.48,119.44-119.44
				c0-10.99-1.49-21.62-4.27-31.73H219.16z"/>
		</g>
	</g>
</g>
</svg>
